<svg width="88" height="88" viewBox="0 0 88 88" fill="none" xmlns="http://www.w3.org/2000/svg">
<g filter="url(#filter0_d_0_957)">
<circle cx="44" cy="40" r="40" fill="#F9818E"/>
<path d="M52.4643 79.1667C53.2318 79.0173 53.9948 78.8455 54.7523 78.6515C56.0371 78.2933 57.3033 77.8711 58.5461 77.3865C59.7914 76.9044 61.0119 76.3603 62.203 75.7562C63.3936 75.1495 64.5532 74.4835 65.6773 73.7609C66.7997 73.0395 67.8853 72.2626 68.9301 71.4329C69.9775 70.6013 70.9826 69.7177 71.9417 68.7854C72.8981 67.8555 73.8075 66.8783 74.6664 65.8575C75.5274 64.8358 76.3367 63.7715 77.0913 62.6688C77.8451 61.5676 78.5435 60.4294 79.1838 59.2584C79.8236 58.0862 80.4045 56.8826 80.9242 55.6524C81.4451 54.4219 81.9042 53.1662 82.2996 51.8898C82.6378 50.7727 82.9271 49.6413 83.1666 48.4989L59.3739 24.6977C55.1311 20.4532 49.5904 18.3333 44.0423 18.3333C38.4939 18.3333 32.9406 20.4529 28.6977 24.6977C20.2118 33.1867 20.2118 46.9026 28.6977 55.3915L52.4643 79.1667Z" fill="#E96170"/>
<path fill-rule="evenodd" clip-rule="evenodd" d="M59.3136 24.6843C55.0784 20.4488 49.5416 18.3333 44.0032 18.3333C38.4648 18.3333 32.9215 20.4488 28.6862 24.6843C20.2156 33.1554 20.2156 46.8423 28.6862 55.3134C37.1568 63.7844 50.8431 63.7844 59.3136 55.3134C67.7842 46.8423 67.7842 33.1554 59.3136 24.6843ZM52.9956 33.6772C53.2455 33.4824 53.552 33.3612 53.8675 33.3323L53.8675 33.3323C53.9238 33.3294 53.9803 33.3294 54.0366 33.3323C55.4237 33.3521 56.1147 35.5287 54.9931 36.3451L41.6672 46.34C41.0328 46.8135 40.0542 46.7432 39.494 46.1839L32.831 39.5206C31.5563 38.2966 33.9626 35.8902 35.1865 37.165L40.8279 42.8067L52.9956 33.6772Z" fill="white"/>
</g>
<defs>
<filter id="filter0_d_0_957" x="0" y="0" width="88" height="88" filterUnits="userSpaceOnUse" color-interpolation-filters="sRGB">
<feFlood flood-opacity="0" result="BackgroundImageFix"/>
<feColorMatrix in="SourceAlpha" type="matrix" values="0 0 0 0 0 0 0 0 0 0 0 0 0 0 0 0 0 0 127 0" result="hardAlpha"/>
<feOffset dy="4"/>
<feGaussianBlur stdDeviation="2"/>
<feComposite in2="hardAlpha" operator="out"/>
<feColorMatrix type="matrix" values="0 0 0 0 0 0 0 0 0 0 0 0 0 0 0 0 0 0 0.25 0"/>
<feBlend mode="normal" in2="BackgroundImageFix" result="effect1_dropShadow_0_957"/>
<feBlend mode="normal" in="SourceGraphic" in2="effect1_dropShadow_0_957" result="shape"/>
</filter>
</defs>
</svg>
